<svg id="Layer_1" data-name="Layer 1" xmlns="http://www.w3.org/2000/svg" viewBox="0 0 191.01 115.41"><defs><style>.cls-1{fill:#fff;}.cls-2{fill:#f17221;}</style></defs><title>img-logo</title><path id="f" class="cls-1" d="M144.93,28.63A9.79,9.79,0,0,0,138,25.76v6.7a3,3,0,0,1,2.18.91,3.1,3.1,0,0,1,.92,2.17,3,3,0,0,1-.92,2.17,3.11,3.11,0,0,1-2.18.91v6.72a9.79,9.79,0,0,0,6.93-16.72h0Z" transform="translate(-24 0)"/><path id="e" class="cls-2" d="M122.47,29.09c0.31,0.7,1.24.7,2.17,0.72s2.47,0.07,3.52,0l0.39,0c0.93-.07,1.41-0.18,1.54-1.17,0.08-.57,0-1.39,0-2.58a2.69,2.69,0,0,1,.36-1.66c0.82-1.52.7-2.22,2.49-2.32,1.34-.07,3.16.15,3.16-1.52V20.44c0-2.12.46-4.7-1.52-4.7s-4.55.46-4.63-2.33c0-1.13-.28-4.13,1.5-4,0.9,0,2.58.31,2.58-1,0-3.61.33-3.28-3.29-3.28-2.17,0,.16,3.87-2.34,5.15a1.81,1.81,0,0,1-1,.24c-0.7,0-1.73,0-1.73,1,0,1.47-.33,3.28,1,3.28l1.52,0a1.05,1.05,0,0,1,1,.59c0.64,1,.75,4.18.43,5.5a3.81,3.81,0,0,1-2.76,2.79c-0.74.1-2.21,0-3.06,0-1.62,0-1.62,1.71-1.55,3.51,0,0.44,0,.88,0,1.31a1.61,1.61,0,0,0,.11.62h0ZM127.08,0h1.11a0.84,0.84,0,0,1,.83.83V1.94a0.84,0.84,0,0,1-.83.83h-1.11a0.84,0.84,0,0,1-.83-0.83V0.83A0.84,0.84,0,0,1,127.08,0Zm-6.51,29.09H100V43a14,14,0,0,0,13.93,13.9h0.28A14,14,0,0,0,128.14,43V31.65c-1.16,0-2.37,0-3.53,0a4.48,4.48,0,0,1-3.11-.83,2.71,2.71,0,0,1-.93-1.7h0Z" transform="translate(-24 0)"/><path id="d" class="cls-1" d="M128.55,20.46H92V43a22.64,22.64,0,0,0,22.6,22.54h0.31A22.64,22.64,0,0,0,137.51,43V23.17a5.76,5.76,0,0,1-3.14.82c-0.78.08-.78,0.08-1,0.41-0.95,1.26-.47,3-0.69,4.5a2.83,2.83,0,0,1-1.86,2.51V43a15.89,15.89,0,0,1-15.86,15.82h-0.31A15.89,15.89,0,0,1,98.76,43V27.18h22.37c0-1.57-.07-3.38,1.16-4.53a3.24,3.24,0,0,1,2.29-.85c0.78,0,1.9.13,2.68,0a1.92,1.92,0,0,0,1.24-1.19l0-.2h0Z" transform="translate(-24 0)"/><path id="c" class="cls-1" d="M33.73,110.05a8.36,8.36,0,0,0,3.06-.54A6.54,6.54,0,0,0,39.16,108a7.23,7.23,0,0,0,1.54-2.35,8.07,8.07,0,0,0,.56-3v-0.07a7.93,7.93,0,0,0-.56-3,7,7,0,0,0-1.54-2.38,6.79,6.79,0,0,0-2.37-1.55A8.42,8.42,0,0,0,33.73,95H29.49v15h4.24v0h0ZM24,90.12h9.71a14.65,14.65,0,0,1,5.36.95,12.7,12.7,0,0,1,4.2,2.61A11.65,11.65,0,0,1,46,97.61a12.36,12.36,0,0,1,1,4.88v0.07a12.44,12.44,0,0,1-1,4.89,11.65,11.65,0,0,1-2.73,3.95,12.87,12.87,0,0,1-4.2,2.64,14.59,14.59,0,0,1-5.36,1H24V90.12h0Zm42.16,14.45-3.3-8.06-3.32,8.06h6.62ZM60.39,89.94h5.05l10.68,25H70.39l-2.27-5.58H57.59L55.32,115H49.71Zm25.4,5.24H78.19v-5H98.85v5H91.26V115H85.78V95.18h0Zm31.58,9.4L114,96.51l-3.3,8.06h6.62Zm-5.77-14.63h5.05l10.68,25h-5.72l-2.27-5.58H108.79L106.52,115h-5.59Z" transform="translate(-24 0)"/><path id="a" class="cls-1" d="M153.79,115.41a12.74,12.74,0,0,1-5.09-1,12.49,12.49,0,0,1-4.06-2.72,12.27,12.27,0,0,1-2.67-4.06,13.08,13.08,0,0,1-1-5v-0.07a12.91,12.91,0,0,1,3.63-9.07,12.58,12.58,0,0,1,4.09-2.77,13.46,13.46,0,0,1,5.27-1,17.45,17.45,0,0,1,3.19.28,14.1,14.1,0,0,1,2.62.78A11.25,11.25,0,0,1,162,92a14.18,14.18,0,0,1,1.85,1.57l-3.48,4a12.84,12.84,0,0,0-3-2.06,7.49,7.49,0,0,0-3.4-.75,6.82,6.82,0,0,0-2.89.6A7.06,7.06,0,0,0,148.77,97a7.7,7.7,0,0,0-1.49,2.46,8.29,8.29,0,0,0-.54,3v0.07a8.44,8.44,0,0,0,.54,3,8,8,0,0,0,1.47,2.48,6.65,6.65,0,0,0,2.27,1.68,6.94,6.94,0,0,0,2.94.62,7.63,7.63,0,0,0,3.61-.78,14,14,0,0,0,2.94-2.14l3.48,3.52a17.47,17.47,0,0,1-2,1.84,12.2,12.2,0,0,1-2.26,1.4,11.49,11.49,0,0,1-2.68.88,14.63,14.63,0,0,1-3.29.34h0Zm25,0a10.91,10.91,0,0,1-7.9-2.77q-2.89-2.77-2.89-8.27V90.11h5.48v14.06a6.57,6.57,0,0,0,1.42,4.6,5.13,5.13,0,0,0,4,1.55,5.27,5.27,0,0,0,4-1.48,6.25,6.25,0,0,0,1.42-4.47V90.12h5.48v14a14.54,14.54,0,0,1-.77,4.94,9.16,9.16,0,0,1-2.19,3.49,8.91,8.91,0,0,1-3.45,2.09,13.94,13.94,0,0,1-4.51.69h0Zm26.34-12.71a4.48,4.48,0,0,0,3.21-1.08,3.57,3.57,0,0,0,1.14-2.68V98.83A3.38,3.38,0,0,0,208.28,96a5.08,5.08,0,0,0-3.25-1h-4.24v7.6h4.33v0h0Zm-9.83-12.54h10.19a12.22,12.22,0,0,1,4,.62,8.26,8.26,0,0,1,3,1.76,7.61,7.61,0,0,1,1.88,2.72A9,9,0,0,1,215,98.7v0.07a8.72,8.72,0,0,1-.79,3.8,7.75,7.75,0,0,1-2.16,2.74,9.19,9.19,0,0,1-3.21,1.65,13.94,13.94,0,0,1-3.94.55h-4.17V115h-5.46V90.11h0Z" transform="translate(-24 0)"/></svg>